# xmcd CD database file
#
# Track frame offsets:
#	182
#	14307
#	29955
#	41440
#	55940
#	70995
#	86307
#	100127
#	115007
#	135357
#	151982
#
# Disc length: 2256 seconds
#
# Revision: 3
# Processed by: cddbd v1.5PL3 Copyright (c) Steve Scherf et al.
# Submitted via: CDex 1.51
#
DISCID=8608ce0b
DTITLE=Kevin Sharp - Measure Of A Man
DYEAR=1996
DGENRE=Country
TTITLE0=Measure Of A Man
TTITLE1=Nobody Knows
TTITLE2=If You Love Somebody
TTITLE3=There's Only You
TTITLE4=She's Sure Taking It Well
TTITLE5=The Strength To Love
TTITLE6=Love Bomb
TTITLE7=I'm Already Loving You Too Much
TTITLE8=Population 4000 Minus 1
TTITLE9=Somebody's Baby
TTITLE10=Love At The End Of The Road
EXTD=YEAR: 1996
EXTT0=
EXTT1=
EXTT2=
EXTT3=
EXTT4=
EXTT5=
EXTT6=
EXTT7=
EXTT8=
EXTT9=
EXTT10=
PLAYORDER=
